[center][IMG]http://img708.imageshack.us/img708/5593/000co.jpg[/IMG]



Format : AVI 
Format/Info : Audio Video Interleave 
File size : 699 MiB 
Duration : 1h 29mn 
Overall bit rate : 1 093 Kbps 
 

Video 
ID : 0 
Format : MPEG-4 Visual 
Format profile : Advanced Simple@L5 
Format settings, BVOP : Yes 
Format settings, QPel : No 
Format settings, GMC : No warppoints 
Format settings, Matrix : Default (H.263) 
Muxing mode : Packed bitstream 
Codec ID : XVID 
Codec ID/Hint : XviD 
Duration : 1h 29mn 
Bit rate : 955 Kbps 
Width : 608 pixels 
Height : 336 pixels 
Display aspect ratio : 16:9 
Frame rate : 23.976 fps 
Resolution : 8 bits 
Colorimetry : 4:2:0 
Scan type : Progressive 
Bits/(Pixel*Frame) : 0.195 
Stream size : 611 MiB (87%) 

Audio 
ID : 1 
Format : MPEG Audio 
Format version : Version 1 
Format profile : Layer 3 
Mode : Joint stereo 
Format_Settings_ModeExtension : MS Stereo 
Codec ID : 55 
Codec ID/Hint : MP3 
Duration : 1h 29mn 
Bit rate mode : Constant 
Bit rate : 128 Kbps 
Channel(s) : 2 channels 
Sampling rate : 48.0 KHz 
Stream size : 81.9 MiB (12%) 
Alignment : Aligned on interleaves 
Interleave, duration : 42 ms (1.00 video frame) 
Interleave, preload duration : 504 ms 
Writing library : LAME3.97  

Bought to you By

UniversalAbsurdity




[/center]